<?xml version="1.0" encoding="UTF-8"?>
<svg xmlns="http://www.w3.org/2000/svg" xmlns:xlink="http://www.w3.org/1999/xlink" viewBox="0 0 300 300" version="1.1">
<g id="surface1">
<path style=" stroke:none;fill-rule:nonzero;fill:rgb(40.784314%,63.529414%,25.098041%);fill-opacity:1;" d="M 148.507812 229.132812 L 37.851562 229.132812 C 34.6875 229.132812 32.140625 226.789062 32.140625 223.917969 L 32.140625 76.113281 C 32.140625 73.242188 34.714844 70.898438 37.851562 70.898438 L 148.710938 70.898438 Z M 148.507812 229.132812 "/>
<path style=" stroke:none;fill-rule:nonzero;fill:rgb(20%,20%,21.176471%);fill-opacity:1;" d="M 147.011719 230.710938 L 37.851562 230.710938 C 33.835938 230.710938 30.554688 227.664062 30.554688 223.914062 L 30.554688 76.113281 C 30.554688 72.363281 33.835938 69.316406 37.851562 69.316406 L 147.011719 69.316406 L 147.011719 72.480469 L 37.851562 72.480469 C 35.566406 72.480469 33.691406 74.121094 33.691406 76.144531 L 33.691406 223.945312 C 33.691406 225.96875 35.566406 227.609375 37.851562 227.609375 L 147.011719 227.609375 L 147.011719 230.714844 Z M 147.011719 230.710938 "/>
<path style=" stroke:none;fill-rule:nonzero;fill:rgb(83.529413%,85.09804%,81.176472%);fill-opacity:1;" d="M 44.09375 87.507812 L 132.859375 87.507812 L 132.859375 229.101562 L 44.09375 229.101562 Z M 44.09375 87.507812 "/>
<path style=" stroke:none;fill-rule:nonzero;fill:rgb(20%,20%,21.176471%);fill-opacity:1;" d="M 134.414062 230.710938 L 42.507812 230.710938 L 42.507812 85.957031 L 134.445312 85.957031 L 134.445312 230.710938 Z M 45.644531 227.546875 L 131.28125 227.546875 L 131.28125 89.09375 L 45.644531 89.09375 Z M 45.644531 227.546875 "/>
<path style=" stroke:none;fill-rule:nonzero;fill:rgb(40.784314%,63.529414%,25.098041%);fill-opacity:1;" d="M 148.273438 229.132812 L 262.148438 229.132812 C 265.3125 229.132812 267.859375 226.789062 267.859375 223.917969 L 267.859375 76.113281 C 267.859375 73.242188 265.28125 70.898438 262.148438 70.898438 L 148.273438 70.898438 Z M 148.273438 229.132812 "/>
<path style=" stroke:none;fill-rule:nonzero;fill:rgb(20%,20%,21.176471%);fill-opacity:1;" d="M 262.148438 230.710938 L 146.6875 230.710938 L 146.6875 69.289062 L 262.148438 69.289062 C 266.164062 69.289062 269.445312 72.335938 269.445312 76.085938 L 269.445312 223.886719 C 269.472656 227.636719 266.191406 230.710938 262.148438 230.710938 Z M 149.851562 227.546875 L 262.148438 227.546875 C 264.433594 227.546875 266.308594 225.90625 266.308594 223.886719 L 266.308594 76.113281 C 266.308594 74.09375 264.433594 72.453125 262.148438 72.453125 L 149.851562 72.453125 Z M 149.851562 227.546875 "/>
<path style=" stroke:none;fill-rule:nonzero;fill:rgb(100%,83.92157%,19.607843%);fill-opacity:1;" d="M 32.109375 101.6875 L 72.101562 101.6875 C 81.296875 101.6875 89.824219 106.113281 94.511719 113.351562 L 121.992188 155.625 C 123.195312 157.441406 123.808594 159.550781 123.808594 161.660156 L 123.808594 229.132812 L 37.617188 229.132812 C 34.570312 229.132812 32.109375 226.875 32.109375 224.09375 Z M 32.109375 101.6875 "/>
<path style=" stroke:none;fill-rule:nonzero;fill:rgb(20%,20%,21.176471%);fill-opacity:1;" d="M 125.421875 230.710938 L 37.617188 230.710938 C 33.71875 230.710938 30.527344 227.753906 30.527344 224.121094 L 30.527344 100.109375 L 72.101562 100.109375 C 81.796875 100.109375 90.878906 104.851562 95.859375 112.46875 L 123.339844 154.746094 C 124.6875 156.828125 125.421875 159.226562 125.421875 161.660156 Z M 33.691406 103.273438 L 33.691406 224.121094 C 33.691406 226.023438 35.449219 227.578125 37.617188 227.578125 L 122.253906 227.578125 L 122.253906 161.660156 C 122.253906 159.84375 121.726562 158.054688 120.703125 156.472656 L 93.222656 114.199219 C 88.828125 107.460938 80.742188 103.269531 72.128906 103.269531 L 33.691406 103.269531 Z M 33.691406 103.273438 "/>
<path style=" stroke:none;fill-rule:nonzero;fill:rgb(20%,20%,21.176471%);fill-opacity:1;" d="M 32.109375 177.539062 L 123.839844 177.539062 L 123.839844 180.703125 L 32.109375 180.703125 Z M 32.109375 177.539062 "/>
<path style=" stroke:none;fill-rule:nonzero;fill:rgb(83.529413%,85.09804%,81.176472%);fill-opacity:1;" d="M 107.898438 215.890625 L 78.046875 215.890625 C 76.113281 215.890625 74.53125 214.304688 74.53125 212.375 L 74.53125 197.109375 C 74.53125 195.175781 76.113281 193.59375 78.046875 193.59375 L 107.898438 193.59375 C 109.835938 193.59375 111.414062 195.175781 111.414062 197.109375 L 111.414062 212.375 C 111.414062 214.304688 109.835938 215.890625 107.898438 215.890625 Z M 107.898438 215.890625 "/>
<path style=" stroke:none;fill-rule:nonzero;fill:rgb(20%,20%,21.176471%);fill-opacity:1;" d="M 107.960938 217.46875 L 77.960938 217.46875 C 75.207031 217.46875 72.949219 215.214844 72.949219 212.460938 L 72.949219 197.050781 C 72.949219 194.296875 75.207031 192.039062 77.960938 192.039062 L 107.960938 192.039062 C 110.710938 192.039062 112.96875 194.296875 112.96875 197.050781 L 112.96875 212.460938 C 113 215.214844 110.742188 217.46875 107.960938 217.46875 Z M 77.960938 195.175781 C 76.933594 195.175781 76.085938 196.023438 76.085938 197.050781 L 76.085938 212.460938 C 76.085938 213.484375 76.933594 214.335938 77.960938 214.335938 L 107.960938 214.335938 C 108.984375 214.335938 109.835938 213.484375 109.835938 212.460938 L 109.835938 197.050781 C 109.835938 196.023438 108.984375 195.175781 107.960938 195.175781 Z M 77.960938 195.175781 "/>
<path style=" stroke:none;fill-rule:nonzero;fill:rgb(83.529413%,85.09804%,81.176472%);fill-opacity:1;" d="M 164.265625 92.695312 L 255.292969 92.695312 L 255.292969 210.90625 L 164.265625 210.90625 Z M 164.265625 92.695312 "/>
<path style=" stroke:none;fill-rule:nonzero;fill:rgb(20%,20%,21.176471%);fill-opacity:1;" d="M 256.875 212.460938 L 162.714844 212.460938 L 162.714844 91.113281 L 256.875 91.113281 Z M 165.847656 209.328125 L 253.710938 209.328125 L 253.710938 94.277344 L 165.851562 94.277344 L 165.851562 209.328125 Z M 165.847656 209.328125 "/>
<path style=" stroke:none;fill-rule:nonzero;fill:rgb(84.705883%,63.137257%,15.686275%);fill-opacity:1;" d="M 232.148438 103.445312 L 189.109375 103.445312 C 186.648438 103.445312 184.628906 101.453125 184.628906 98.964844 L 184.628906 87.863281 L 236.601562 87.863281 L 236.601562 98.964844 C 236.632812 101.453125 234.609375 103.445312 232.148438 103.445312 Z M 232.148438 103.445312 "/>
<path style=" stroke:none;fill-rule:nonzero;fill:rgb(20%,20%,21.176471%);fill-opacity:1;" d="M 232.234375 105.03125 L 189.023438 105.03125 C 185.742188 105.03125 183.078125 102.363281 183.078125 99.082031 L 183.078125 86.28125 L 238.183594 86.28125 L 238.183594 99.082031 C 238.183594 102.363281 235.515625 105.03125 232.234375 105.03125 Z M 186.210938 89.445312 L 186.210938 99.082031 C 186.210938 100.632812 187.46875 101.894531 189.023438 101.894531 L 232.265625 101.894531 C 233.820312 101.894531 235.078125 100.632812 235.078125 99.082031 L 235.078125 89.445312 Z M 186.210938 89.445312 "/>
<path style=" stroke:none;fill-rule:nonzero;fill:rgb(20%,20%,21.176471%);fill-opacity:1;" d="M 237.804688 129.199219 L 182.167969 129.199219 C 181.289062 129.199219 180.585938 128.496094 180.585938 127.617188 C 180.585938 126.738281 181.289062 126.035156 182.167969 126.035156 L 237.773438 126.035156 C 238.652344 126.035156 239.355469 126.738281 239.355469 127.617188 C 239.355469 128.496094 238.652344 129.199219 237.800781 129.199219 Z M 237.804688 129.199219 "/>
<path style=" stroke:none;fill-rule:nonzero;fill:rgb(20%,20%,21.176471%);fill-opacity:1;" d="M 237.804688 149.328125 L 182.167969 149.328125 C 181.289062 149.328125 180.585938 148.625 180.585938 147.742188 C 180.585938 146.867188 181.289062 146.164062 182.167969 146.164062 L 237.773438 146.164062 C 238.652344 146.164062 239.355469 146.867188 239.355469 147.742188 C 239.355469 148.625 238.652344 149.328125 237.800781 149.328125 Z M 237.804688 149.328125 "/>
<path style=" stroke:none;fill-rule:nonzero;fill:rgb(20%,20%,21.176471%);fill-opacity:1;" d="M 237.804688 169.453125 L 182.167969 169.453125 C 181.289062 169.453125 180.585938 168.75 180.585938 167.871094 C 180.585938 166.992188 181.289062 166.289062 182.167969 166.289062 L 237.773438 166.289062 C 238.652344 166.289062 239.355469 166.992188 239.355469 167.871094 C 239.355469 168.75 238.652344 169.453125 237.800781 169.453125 Z M 237.804688 169.453125 "/>
<path style=" stroke:none;fill-rule:nonzero;fill:rgb(20%,20%,21.176471%);fill-opacity:1;" d="M 237.804688 189.578125 L 182.167969 189.578125 C 181.289062 189.578125 180.585938 188.875 180.585938 188 C 180.585938 187.117188 181.289062 186.417969 182.167969 186.417969 L 237.773438 186.417969 C 238.652344 186.417969 239.355469 187.117188 239.355469 188 C 239.355469 188.875 238.652344 189.578125 237.800781 189.578125 Z M 237.804688 189.578125 "/>
</g>
</svg>
